<svg height="480pt" viewBox="0 0 480 480" width="480pt" xmlns="http://www.w3.org/2000/svg" xmlns:xlink="http://www.w3.org/1999/xlink"><linearGradient id="a"><stop offset="0" stop-color="#e93e3a"/><stop offset=".35" stop-color="#ed683c"/><stop offset=".7" stop-color="#f3903f"/><stop offset="1" stop-color="#fdc70c"/></linearGradient><linearGradient id="b" gradientUnits="userSpaceOnUse" x1="229.168" x2="229.168" xlink:href="#a" y1="491.256" y2="-14.04"/><linearGradient id="c" gradientUnits="userSpaceOnUse" x1="80" x2="80" xlink:href="#a" y1="491.256" y2="-14.04"/><linearGradient id="d" gradientUnits="userSpaceOnUse" x1="400" x2="400" xlink:href="#a" y1="491.256" y2="-14.04"/><linearGradient id="e" gradientUnits="userSpaceOnUse" x1="240" x2="240" xlink:href="#a" y1="491.256" y2="-14.04"/><linearGradient id="f" gradientUnits="userSpaceOnUse" x1="208.04383" x2="208.04383" xlink:href="#a" y1="491.259374" y2="-14.036626"/><linearGradient id="g" gradientUnits="userSpaceOnUse" x1="177.072299" x2="177.072299" xlink:href="#a" y1="491.257263" y2="-14.038737"/><linearGradient id="h" gradientUnits="userSpaceOnUse" x1="147.999988" x2="147.999988" xlink:href="#a" y1="491.256681" y2="-14.039319"/><linearGradient id="i" gradientUnits="userSpaceOnUse" x1="58.795821" x2="58.795821" xlink:href="#a" y1="491.255238" y2="-14.040762"/><linearGradient id="j" gradientUnits="userSpaceOnUse" x1="56" x2="56" xlink:href="#a" y1="491.256" y2="-14.04"/><linearGradient id="k" gradientUnits="userSpaceOnUse" x1="58.793513" x2="58.793513" xlink:href="#a" y1="491.257373" y2="-14.038627"/><linearGradient id="l" gradientUnits="userSpaceOnUse" x1="67.096035" x2="67.096035" xlink:href="#a" y1="491.256342" y2="-14.039658"/><linearGradient id="m" gradientUnits="userSpaceOnUse" x1="80.661753" x2="80.661753" xlink:href="#a" y1="491.255417" y2="-14.040583"/><linearGradient id="n" gradientUnits="userSpaceOnUse" x1="99.049015" x2="99.049015" xlink:href="#a" y1="491.250002" y2="-14.045998"/><linearGradient id="o" gradientUnits="userSpaceOnUse" x1="121.724739" x2="121.724739" xlink:href="#a" y1="491.254807" y2="-14.041193"/><linearGradient id="p" gradientUnits="userSpaceOnUse" x1="148.007101" x2="148.007101" xlink:href="#a" y1="491.257166" y2="-14.038834"/><linearGradient id="q" gradientUnits="userSpaceOnUse" x1="177.075902" x2="177.075902" xlink:href="#a" y1="491.259782" y2="-14.036218"/><linearGradient id="r" gradientUnits="userSpaceOnUse" x1="208.049433" x2="208.049433" xlink:href="#a" y1="491.254794" y2="-14.041206"/><linearGradient id="s" gradientUnits="userSpaceOnUse" x1="271.954071" x2="271.954071" xlink:href="#a" y1="491.257577" y2="-14.038423"/><linearGradient id="t" gradientUnits="userSpaceOnUse" x1="302.925358" x2="302.925358" xlink:href="#a" y1="491.258699" y2="-14.037301"/><linearGradient id="u" gradientUnits="userSpaceOnUse" x1="332.001264" x2="332.001264" xlink:href="#a" y1="491.257142" y2="-14.038858"/><linearGradient id="v" gradientUnits="userSpaceOnUse" x1="421.216989" x2="421.216989" xlink:href="#a" y1="491.257183" y2="-14.038817"/><linearGradient id="w" gradientUnits="userSpaceOnUse" x1="424" x2="424" xlink:href="#a" y1="491.256" y2="-14.04"/><linearGradient id="x" gradientUnits="userSpaceOnUse" x1="421.213822" x2="421.213822" xlink:href="#a" y1="491.252781" y2="-14.043219"/><linearGradient id="y" gradientUnits="userSpaceOnUse" x1="412.904287" x2="412.904287" xlink:href="#a" y1="491.258282" y2="-14.037718"/><linearGradient id="z" gradientUnits="userSpaceOnUse" x1="399.342989" x2="399.342989" xlink:href="#a" y1="491.254702" y2="-14.041298"/><linearGradient id="A" gradientUnits="userSpaceOnUse" x1="380.951238" x2="380.951238" xlink:href="#a" y1="491.258383" y2="-14.037617"/><linearGradient id="B" gradientUnits="userSpaceOnUse" x1="358.273473" x2="358.273473" xlink:href="#a" y1="491.256543" y2="-14.039457"/><linearGradient id="C" gradientUnits="userSpaceOnUse" x1="331.995856" x2="331.995856" xlink:href="#a" y1="491.256104" y2="-14.039896"/><linearGradient id="D" gradientUnits="userSpaceOnUse" x1="302.920817" x2="302.920817" xlink:href="#a" y1="491.25168" y2="-14.04432"/><linearGradient id="E" gradientUnits="userSpaceOnUse" x1="271.955377" x2="271.955377" xlink:href="#a" y1="491.249627" y2="-14.046373"/><linearGradient id="F" gradientUnits="userSpaceOnUse" x1="352" x2="352" xlink:href="#a" y1="491.256" y2="-14.04"/><linearGradient id="G" gradientUnits="userSpaceOnUse" x1="128" x2="128" xlink:href="#a" y1="491.256" y2="-14.04"/><path d="m352 216c.003906-3.3125-2.035156-6.28125-5.128906-7.472656l-104-40c-1.851563-.695313-3.890625-.695313-5.742188 0l-104 40c-3.09375 1.191406-5.132812 4.160156-5.128906 7.472656v36.6875l-21.65625 21.65625 11.3125 11.3125 10.34375-10.34375v12.6875h16v-12.6875l10.34375 10.34375 11.3125-11.3125-21.65625-21.65625v-25.039062l32 12.351562v48c-.015625 3.046875 1.699219 5.839844 4.425781 7.199219 1.375.640625 33.972657 16.800781 59.574219 16.800781s58.199219-16.160156 59.574219-16.800781c2.726562-1.359375 4.441406-4.152344 4.425781-7.199219v-48l42.871094-16.488281c3.105468-1.195313 5.148437-4.183594 5.128906-7.511719zm-64 66.902344c-15.066406 7.257812-31.335938 11.695312-48 13.097656-16.664062-1.410156-32.929688-5.847656-48-13.097656v-36.796875l45.128906 17.359375c1.847656.703125 3.894532.703125 5.742188 0l45.128906-17.351563zm-48-35.46875-81.710938-31.433594 81.710938-31.433594 81.710938 31.433594zm0 0" fill="url(#b)"/><path d="m160 184v-23.839844c-.039062-17.847656-11.851562-33.53125-29-38.488281l-27-7.726563v-10.152343c10.035156-7.492188 15.964844-19.269531 16-31.792969v-8c4.417969 0 8-3.582031 8-8v-8c0-26.507812-21.492188-48-48-48s-48 21.492188-48 48v8c0 4.417969 3.582031 8 8 8v8c.035156 12.523438 5.964844 24.300781 16 31.792969v10.152343l-26.992188 7.71875c-17.152343 4.957032-28.9687495 20.644532-29.007812 38.496094v23.839844c0 4.417969 3.582031 8 8 8h144c4.417969 0 8-3.582031 8-8zm-80-168c17.589844 0 31.882812 14.195312 32 31.785156-2.296875-.558594-4.230469-2.101562-5.28125-4.21875l-3.519531-7.132812c-1.023438-2.058594-2.882813-3.578125-5.101563-4.167969-2.222656-.574219-4.582031-.183594-6.496094 1.078125l-11.90625 7.9375c-6.574218 4.394531-14.3125 6.734375-22.222656 6.71875h-9.472656c0-17.671875 14.328125-32 32-32zm-22.527344 48c11.054688.011719 21.867188-3.261719 31.054688-9.40625l4.382812-2.921875c2.523438 4.441406 6.414063 7.949219 11.089844 10v10.328125c0 13.253906-10.746094 24-24 24s-24-10.746094-24-24v-8zm22.527344 48c2.6875.003906 5.367188-.265625 8-.800781v8.800781c.023438 2.277344 1.03125 4.4375 2.761719 5.921875l-10.761719 8.078125-10.761719-8.078125c1.730469-1.484375 2.738281-3.644531 2.761719-5.921875v-8.800781c2.632812.535156 5.3125.804687 8 .800781zm64 64h-16v-24h-16v24h-64v-24h-16v24h-16v-15.839844c.023438-10.714844 7.113281-20.132812 17.40625-23.113281l17.394531-4.957031 24.398438 18.308594c2.84375 2.136718 6.757812 2.136718 9.601562 0l24.390625-18.308594 17.402344 4.964844c10.292969 2.976562 17.386719 12.390624 17.40625 23.105468zm0 0" fill="url(#c)"/><path d="m451 409.671875-27-7.726563v-10.152343c10.035156-7.492188 15.964844-19.269531 16-31.792969v-8c4.417969 0 8-3.582031 8-8v-8c0-26.507812-21.492188-48-48-48s-48 21.492188-48 48v8c0 4.417969 3.582031 8 8 8v8c.035156 12.523438 5.964844 24.300781 16 31.792969v10.152343l-26.992188 7.71875c-17.152343 4.957032-28.96875 20.644532-29.007812 38.496094v23.839844c0 4.417969 3.582031 8 8 8h144c4.417969 0 8-3.582031 8-8v-23.839844c-.039062-17.847656-11.851562-33.53125-29-38.488281zm-51-105.671875c17.589844 0 31.882812 14.195312 32 31.785156-2.296875-.558594-4.230469-2.101562-5.28125-4.21875l-3.558594-7.132812c-1.023437-2.058594-2.882812-3.578125-5.105468-4.167969-2.21875-.574219-4.578126-.183594-6.496094 1.078125l-11.902344 7.9375c-6.566406 4.386719-14.285156 6.726562-22.183594 6.71875h-9.472656c0-17.671875 14.328125-32 32-32zm-22.527344 48c11.054688.011719 21.867188-3.261719 31.054688-9.40625l4.382812-2.921875c2.523438 4.441406 6.414063 7.949219 11.089844 10v10.328125c0 13.253906-10.746094 24-24 24s-24-10.746094-24-24v-8zm22.527344 48c2.6875.003906 5.367188-.265625 8-.800781v8.800781c.023438 2.277344 1.03125 4.4375 2.761719 5.921875l-10.761719 8.078125-10.761719-8.078125c1.730469-1.484375 2.738281-3.644531 2.761719-5.921875v-8.800781c2.632812.535156 5.3125.804687 8 .800781zm64 64h-16v-24h-16v24h-64v-24h-16v24h-16v-15.839844c.023438-10.714844 7.113281-20.132812 17.40625-23.113281l17.394531-4.957031 24.398438 18.308594c2.84375 2.136718 6.757812 2.136718 9.601562 0l24.390625-18.308594 17.402344 4.964844c10.292969 2.976562 17.386719 12.390624 17.40625 23.105468zm0 0" fill="url(#d)"/><path d="m232 48h16v16h-16zm0 0" fill="url(#e)"/><path d="m198.777344 52.300781 15.75-2.777343 2.78125 15.753906-15.75 2.78125zm0 0" fill="url(#f)"/><path d="m166.816406 62.3125 15.03125-5.464844 5.464844 15.035156-15.027344 5.464844zm0 0" fill="url(#g)"/><path d="m137.074219 77.726562 13.855469-8.003906 8 13.847656-13.855469 8.003907zm0 0" fill="url(#h)"/><path d="m49.53125 214.53125 2.777344-15.75 15.757812 2.78125-2.78125 15.75zm0 0" fill="url(#i)"/><path d="m48 232h16v16h-16zm0 0" fill="url(#j)"/><path d="m49.519531 265.472656 15.757813-2.78125 2.78125 15.746094-15.757813 2.785156zm0 0" fill="url(#k)"/><path d="m56.847656 298.152344 15.035156-5.46875 5.46875 15.027344-15.035156 5.472656zm0 0" fill="url(#l)"/><path d="m69.734375 329.070312 13.847656-7.996093 8 13.859375-13.851562 7.992187zm0 0" fill="url(#m)"/><path d="m87.777344 357.28125 12.261718-10.277344 10.28125 12.269532-12.261718 10.277343zm0 0" fill="url(#n)"/><path d="m110.453125 381.933594 10.28125-12.261719 12.265625 10.285156-10.277344 12.261719zm0 0" fill="url(#o)"/><path d="m137.070312 402.277344 7.996094-13.847656 13.859375 7.996093-7.996093 13.851563zm0 0" fill="url(#p)"/><path d="m166.824219 417.6875 5.46875-15.035156 15.027343 5.464844-5.46875 15.039062zm0 0" fill="url(#q)"/><path d="m198.78125 427.695312 2.78125-15.757812 15.746094 2.78125-2.78125 15.753906zm0 0" fill="url(#r)"/><path d="m232 416h16v16h-16zm0 0" fill="url(#e)"/><path d="m262.695312 414.714844 15.75-2.777344 2.78125 15.753906-15.75 2.78125zm0 0" fill="url(#s)"/><path d="m292.679688 408.121094 15.03125-5.46875 5.464843 15.039062-15.027343 5.464844zm0 0" fill="url(#t)"/><path d="m321.078125 396.421875 13.855469-8 7.996094 13.851563-13.859376 7.996093zm0 0" fill="url(#u)"/><path d="m411.945312 278.441406 2.777344-15.746094 15.757813 2.78125-2.78125 15.746094zm0 0" fill="url(#v)"/><path d="m416 232h16v16h-16zm0 0" fill="url(#w)"/><path d="m411.941406 201.5625 15.757813-2.78125 2.78125 15.746094-15.757813 2.78125zm0 0" fill="url(#x)"/><path d="m402.65625 172.289062 15.035156-5.46875 5.46875 15.027344-15.039062 5.46875zm0 0" fill="url(#y)"/><path d="m388.421875 145.070312 13.851563-7.996093 8 13.859375-13.851563 7.992187zm0 0" fill="url(#z)"/><path d="m369.683594 120.738281 12.261718-10.277343 10.285157 12.269531-12.261719 10.277343zm0 0" fill="url(#A)"/><path d="m347 100.039062 10.277344-12.261718 12.269531 10.28125-10.277344 12.261718zm0 0" fill="url(#B)"/><path d="m321.066406 83.578125 8-13.847656 13.855469 8-8 13.851562zm0 0" fill="url(#C)"/><path d="m292.679688 71.882812 5.46875-15.039062 15.027343 5.464844-5.46875 15.039062zm0 0" fill="url(#D)"/><path d="m262.691406 65.28125 2.78125-15.757812 15.75 2.78125-2.78125 15.753906zm0 0" fill="url(#E)"/><path d="m448 240h16c-.140625-123.652344-100.347656-223.859375-224-224v16c114.820312.128906 207.871094 93.179688 208 208zm0 0" fill="url(#F)"/><path d="m32 240h-16c.140625 123.652344 100.347656 223.859375 224 224v-16c-114.820312-.128906-207.871094-93.179688-208-208zm0 0" fill="url(#G)"/></svg>